/* XPM */
static char *texture[] = {
"64 64 2 1",
"  c #DAA520",
". c #B8860B",
".                  ..                  ..                  ..   ",
".                  ..                  ..                  ..   ",
".                  ..                  ..                  ..   ",
"....             .......             .......             .......",
".....           .........           .........           ........",
"......         ...........         ...........         .........",
".......       .............       .............       ..........",
"........     ...............     ...............     ...........",
".........   .................   .................   ............",
".......... ................... ................... .............",
".                  ..                  ..                  ..   ",
".                  ..                  ..                  ..   ",
".                  ..                  ..                  ..   ",
".                  ..                  ..                  ..   ",
".                  ..                  ..                  ..   ",
".                  ..                  ..                  ..   ",
".                  ..                  ..                  ..   ",
".                  ..                  ..                  ..   ",
".                  ..                  ..                  ..   ",
".                  ..                  ..                  ..   ",
".                  ..                  ..                  ..   ",
".                  ..                  ..                  ..   ",
".                  ..                  ..                  ..   ",
"....             .......             .......             .......",
".....           .........           .........           ........",
"......         ...........         ...........         .........",
".......       .............       .............       ..........",
"........     ...............     ...............     ...........",
".........   .................   .................   ............",
".......... ................... ................... .............",
".                  ..                  ..                  ..   ",
".                  ..                  ..                  ..   ",
".                  ..                  ..                  ..   ",
".                  ..                  ..                  ..   ",
".                  ..                  ..                  ..   ",
".                  ..                  ..                  ..   ",
".                  ..                  ..                  ..   ",
".                  ..                  ..                  ..   ",
".                  ..                  ..                  ..   ",
".                  ..                  ..                  ..   ",
".                  ..                  ..                  ..   ",
".                  ..                  ..                  ..   ",
".                  ..                  ..                  ..   ",
"....             .......             .......             .......",
".....           .........           .........           ........",
"......         ...........         ...........         .........",
".......       .............       .............       ..........",
"........     ...............     ...............     ...........",
".........   .................   .................   ............",
".......... ................... ................... .............",
".                  ..                  ..                  ..   ",
".                  ..                  ..                  ..   ",
".                  ..                  ..                  ..   ",
".                  ..                  ..                  ..   ",
".                  ..                  ..                  ..   ",
".                  ..                  ..                  ..   ",
".                  ..                  ..                  ..   ",
".                  ..                  ..                  ..   ",
".                  ..                  ..                  ..   ",
".                  ..                  ..                  ..   ",
".                  ..                  ..                  ..   ",
".                  ..                  ..                  ..   ",
".                  ..                  ..                  ..   ",
"....             .......             .......             ......."
};
