/* XPM */
static char *texture[] = {
"64 64 2 1",
"  c #D4A373",
". c #8B6F47",
"................................................................",
"................................................................",
"..            ....            ....            ....            ..",
"..            ....            ....            ....            ..",
"..     ..     ....     ..     ....     ..     ....     ..     ..",
"..            ....            ....            ....            ..",
"..            ....            ....            ....            ..",
"..            ....            ....            ....            ..",
"................................................................",
"................................................................",
"..            ....            ....            ....            ..",
"..            ....            ....            ....            ..",
"..     ..     ....     ..     ....     ..     ....     ..     ..",
"..            ....            ....            ....            ..",
"..            ....            ....            ....            ..",
"..            ....            ....            ....            ..",
"................................................................",
"................................................................",
"..            ....            ....            ....            ..",
"..            ....            ....            ....            ..",
"..     ..     ....     ..     ....     ..     ....     ..     ..",
"..            ....            ....            ....            ..",
"..            ....            ....            ....            ..",
"..            ....            ....            ....            ..",
"................................................................",
"................................................................",
"..            ....            ....            ....            ..",
"..            ....            ....            ....            ..",
"..     ..     ....     ..     ....     ..     ....     ..     ..",
"..            ....            ....            ....            ..",
"..            ....            ....            ....            ..",
"..            ....            ....            ....            ..",
"................................................................",
"................................................................",
"..            ....            ....            ....            ..",
"..            ....            ....            ....            ..",
"..     ..     ....     ..     ....     ..     ....     ..     ..",
"..            ....            ....            ....            ..",
"..            ....            ....            ....            ..",
"..            ....            ....            ....            ..",
"................................................................",
"................................................................",
"..            ....            ....            ....            ..",
"..            ....            ....            ....            ..",
"..     ..     ....     ..     ....     ..     ....     ..     ..",
"..            ....            ....            ....            ..",
"..            ....            ....            ....            ..",
"..            ....            ....            ....            ..",
"................................................................",
"................................................................",
"..            ....            ....            ....            ..",
"..            ....            ....            ....            ..",
"..     ..     ....     ..     ....     ..     ....     ..     ..",
"..            ....            ....            ....            ..",
"..            ....            ....            ....            ..",
"..            ....            ....            ....            ..",
"................................................................",
"................................................................",
"..            ....            ....            ....            ..",
"..            ....            ....            ....            ..",
"..     ..     ....     ..     ....     ..     ....     ..     ..",
"..            ....            ....            ....            ..",
"..            ....            ....            ....            ..",
"..            ....            ....            ....            .."
};
