/* XPM */
static char *texture[] = {
"64 64 2 1",
"  c #C1876B",
". c #8B4513",
".   .   .   .   .   .   .   .   .   .   .   .   .   .   .   .   ",
"        .               .               .               .       ",
"       ...             ...             ...             ...      ",
"      .. ..           .. ..           .. ..           .. ..     ",
"     ..   ..         ..   ..         ..   ..         ..   ..    ",
"    ..     ..       ..     ..       ..     ..       ..     ..   ",
"   ..       ..     ..       ..     ..       ..     ..       ..  ",
"  ..         ..   ..         ..   ..         ..   ..         .. ",
" ..           .. ..           .. ..           .. ..           ..",
"  ..         ..   ..         ..   ..         ..   ..         .. ",
"   ..       ..     ..       ..     ..       ..     ..       ..  ",
"    ..     ..       ..     ..       ..     ..       ..     ..   ",
"     ..   ..         ..   ..         ..   ..         ..   ..    ",
"      .. ..           .. ..           .. ..           .. ..     ",
"       ...             ...             ...             ...      ",
".   .   .   .   .   .   .   .   .   .   .   .   .   .   .   .   ",
".   .   .   .   .   .   .   .   .   .   .   .   .   .   .   .   ",
"        .               .               .               .       ",
"       ...             ...             ...             ...      ",
"      .. ..           .. ..           .. ..           .. ..     ",
"     ..   ..         ..   ..         ..   ..         ..   ..    ",
"    ..     ..       ..     ..       ..     ..       ..     ..   ",
"   ..       ..     ..       ..     ..       ..     ..       ..  ",
"  ..         ..   ..         ..   ..         ..   ..         .. ",
" ..           .. ..           .. ..           .. ..           ..",
"  ..         ..   ..         ..   ..         ..   ..         .. ",
"   ..       ..     ..       ..     ..       ..     ..       ..  ",
"    ..     ..       ..     ..       ..     ..       ..     ..   ",
"     ..   ..         ..   ..         ..   ..         ..   ..    ",
"      .. ..           .. ..           .. ..           .. ..     ",
"       ...             ...             ...             ...      ",
".   .   .   .   .   .   .   .   .   .   .   .   .   .   .   .   ",
".   .   .   .   .   .   .   .   .   .   .   .   .   .   .   .   ",
"        .               .               .               .       ",
"       ...             ...             ...             ...      ",
"      .. ..           .. ..           .. ..           .. ..     ",
"     ..   ..         ..   ..         ..   ..         ..   ..    ",
"    ..     ..       ..     ..       ..     ..       ..     ..   ",
"   ..       ..     ..       ..     ..       ..     ..       ..  ",
"  ..         ..   ..         ..   ..         ..   ..         .. ",
" ..           .. ..           .. ..           .. ..           ..",
"  ..         ..   ..         ..   ..         ..   ..         .. ",
"   ..       ..     ..       ..     ..       ..     ..       ..  ",
"    ..     ..       ..     ..       ..     ..       ..     ..   ",
"     ..   ..         ..   ..         ..   ..         ..   ..    ",
"      .. ..           .. ..           .. ..           .. ..     ",
"       ...             ...             ...             ...      ",
".   .   .   .   .   .   .   .   .   .   .   .   .   .   .   .   ",
".   .   .   .   .   .   .   .   .   .   .   .   .   .   .   .   ",
"        .               .               .               .       ",
"       ...             ...             ...             ...      ",
"      .. ..           .. ..           .. ..           .. ..     ",
"     ..   ..         ..   ..         ..   ..         ..   ..    ",
"    ..     ..       ..     ..       ..     ..       ..     ..   ",
"   ..       ..     ..       ..     ..       ..     ..       ..  ",
"  ..         ..   ..         ..   ..         ..   ..         .. ",
" ..           .. ..           .. ..           .. ..           ..",
"  ..         ..   ..         ..   ..         ..   ..         .. ",
"   ..       ..     ..       ..     ..       ..     ..       ..  ",
"    ..     ..       ..     ..       ..     ..       ..     ..   ",
"     ..   ..         ..   ..         ..   ..         ..   ..    ",
"      .. ..           .. ..           .. ..           .. ..     ",
"       ...             ...             ...             ...      ",
".   .   .   .   .   .   .   .   .   .   .   .   .   .   .   .   "
};
