/* XPM */
static char *texture[] = {
"64 64 2 1",
"  c #A9A9A9",
". c #696969",
"................................................................",
".      .       .       .       ..      .       .       .       .",
".     .       .       .       ...     .       .       .       ..",
".    .       .       .       . ..    .       .       .       . .",
".   .       .       .       .  ..   .       .       .       .  .",
".  .       .       .       .   ..  .       .       .       .   .",
". .       .       .       .    .. .       .       .       .    .",
"..       .       .       .     ...       .       .       .     .",
".       .................      ..       .................      .",
".      ..      .       .       ..      ..      .       .       .",
".     . .     .       ..      ...     . .     .       ..      ..",
".    .  .    .       . .     . ..    .  .    .       . .     . .",
".   .   .   .       .  .    .  ..   .   .   .       .  .    .  .",
".  .    .  .       .   .   .   ..  .    .  .       .   .   .   .",
". .     . .       .    .  .    .. .     . .       .    .  .    .",
"..      ..     ...     . .     ...      ..     ...     . .     .",
".       .      ..      ..      ..       .      ..      ..      .",
".      ..      .       .       ..      ..      .       .       .",
".     . .     .       ..      ...     . .     .       ..      ..",
".    .  .    .       . .     . ..    .  .    .       . .     . .",
".   .   .   .       .  .    .  ..   .   .   .       .  .    .  .",
".  .    .  .       .   .   .   ..  .    .  .       .   .   .   .",
". .     . .       .    .  .    .. .     . .       .    .  .    .",
"..      ................ .     ...      ................ .     .",
".       .       .       .      ..       .       .       .      .",
".      .       .       .       ..      .       .       .       .",
".     .       .       .       ...     .       .       .       ..",
".    .       .       .       . ..    .       .       .       . .",
".   .       .       .       .  ..   .       .       .       .  .",
".  .       .       .       .   ..  .       .       .       .   .",
". .       .       .       .    .. .       .       .       .    .",
"................................................................",
"................................................................",
".      .       .       .       ..      .       .       .       .",
".     .       .       .       ...     .       .       .       ..",
".    .       .       .       . ..    .       .       .       . .",
".   .       .       .       .  ..   .       .       .       .  .",
".  .       .       .       .   ..  .       .       .       .   .",
". .       .       .       .    .. .       .       .       .    .",
"..       .       .       .     ...       .       .       .     .",
".       .................      ..       .................      .",
".      ..      .       .       ..      ..      .       .       .",
".     . .     .       ..      ...     . .     .       ..      ..",
".    .  .    .       . .     . ..    .  .    .       . .     . .",
".   .   .   .       .  .    .  ..   .   .   .       .  .    .  .",
".  .    .  .       .   .   .   ..  .    .  .       .   .   .   .",
". .     . .       .    .  .    .. .     . .       .    .  .    .",
"..      ..     ...     . .     ...      ..     ...     . .     .",
".       .      ..      ..      ..       .      ..      ..      .",
".      ..      .       .       ..      ..      .       .       .",
".     . .     .       ..      ...     . .     .       ..      ..",
".    .  .    .       . .     . ..    .  .    .       . .     . .",
".   .   .   .       .  .    .  ..   .   .   .       .  .    .  .",
".  .    .  .       .   .   .   ..  .    .  .       .   .   .   .",
". .     . .       .    .  .    .. .     . .       .    .  .    .",
"..      ................ .     ...      ................ .     .",
".       .       .       .      ..       .       .       .      .",
".      .       .       .       ..      .       .       .       .",
".     .       .       .       ...     .       .       .       ..",
".    .       .       .       . ..    .       .       .       . .",
".   .       .       .       .  ..   .       .       .       .  .",
".  .       .       .       .   ..  .       .       .       .   .",
". .       .       .       .    .. .       .       .       .    .",
"................................................................"
};
